<svg xmlns="http://www.w3.org/2000/svg" width="98.655" height="61" viewBox="0 0 98.655 61">
  <g id="Group_4845" data-name="Group 4845" transform="translate(338.398 365.086)">
    <path id="Path_6176" data-name="Path 6176" d="M-277.086-305.008l-1.723.25a11.079,11.079,0,0,0-1.735.211l-1.607.139a19.977,19.977,0,0,0-2.427.207l-1.031.024a17.692,17.692,0,0,0-2.773.091l-4.143-.091-1.845-.115-1.613-.116-1.615-.135a11.609,11.609,0,0,0-1.96-.23,7.362,7.362,0,0,0-1.388-.216,9.906,9.906,0,0,0-1.687-.265l-3.727-.772-1.5-.359-1.957-.55-3.57-1.121a8.937,8.937,0,0,0-1.5-.52,1.02,1.02,0,0,0-.582-.23,3.379,3.379,0,0,0-1.146-.462,13.6,13.6,0,0,0-1.844-.809l-3.447-1.75-3.457-2.1-.123-.075-1.617-1.15-.749-.579-.844-.7a38,38,0,0,1-4.468-4.493l-.846-1.085-.457-.636a38.616,38.616,0,0,1-1.98-3.455l-1.26-3.344q-.187-.922-.374-1.843c-.216-.989-.145-2.009-.313-3,0-.229,0-.458,0-.687a5.972,5.972,0,0,0,.1-1.5q.151-.974.3-1.948l.3-1.389c.408-1.213.855-2.411,1.37-3.583l1.963-3.338a2.324,2.324,0,0,0,.481-.684,7.5,7.5,0,0,0,.924-1.149,3.824,3.824,0,0,0,.68-.8,4.679,4.679,0,0,0,.779-.836,5.964,5.964,0,0,0,.936-.924l.826-.788a4.483,4.483,0,0,0,.916-.793,6.879,6.879,0,0,0,1.149-.925l.59-.437,3.443-2.329,1.257-.721a1.748,1.748,0,0,0,.584-.335l1.606-.835a4.474,4.474,0,0,0,1.044-.541,2.36,2.36,0,0,0,.8-.364,6.846,6.846,0,0,0,1.5-.672l3.684-1.4a9.532,9.532,0,0,0,1.744-.558l3.327-.949,1.841-.447,1.617-.359,3.724-.653,1.117-.159,2.541-.322a5.624,5.624,0,0,0,1.377-.135,5.3,5.3,0,0,0,1.5-.115,10.546,10.546,0,0,0,1.956-.11l1.617-.01h3.458l1.727.02a7.417,7.417,0,0,0,1.616.1,9.152,9.152,0,0,0,1.955.126,9.2,9.2,0,0,0,1.617.212l1.493.148,2.081.322,3.338.581,1.621.347a12.913,12.913,0,0,0,2.068.489,6.183,6.183,0,0,0,1.612.447l0,0a5.938,5.938,0,0,0,1.388.441,14.619,14.619,0,0,0,1.841.594l1.737.658.214.047a9.916,9.916,0,0,0,1.619.673l1.715.748.595.282a4.58,4.58,0,0,0,1.027.479l1.732.92a2.158,2.158,0,0,0,.684.366,5.727,5.727,0,0,0,1.149.694l3.46,2.331c.129.113.226.269.412.3l1.319,1.052a3.79,3.79,0,0,0,.791.676,4.348,4.348,0,0,0,.836.8l1.033,1.034.8.837a3.858,3.858,0,0,0,.676.791,10.02,10.02,0,0,0,1.051,1.319,1.441,1.441,0,0,0,.35.522c.709,1.082,1.357,2.2,1.971,3.338l1.365,3.59q.182.8.365,1.6l.241,1.733q.046,1.38.091,2.761a1.592,1.592,0,0,0-.091.7l-.139,1.493-.442,1.966a35.9,35.9,0,0,1-1.31,3.569c-.619,1.13-1.239,2.26-1.943,3.341l-.676.935a3.7,3.7,0,0,0-.608.784c-.241.27-.49.532-.721.81a37.763,37.763,0,0,1-3.754,3.691l-.9.708-.715.561-1.478,1.055-.27.176-3.443,2.1-3.451,1.751-3.586,1.489a9.031,9.031,0,0,0-1.6.6l-3.684,1.147-1.5.373-1.617.432-3.57.72Zm-12.434-.452a80.672,80.672,0,0,0,9.8-.566,70.779,70.779,0,0,0,8.069-1.423,60.006,60.006,0,0,0,12.1-4.217,38.633,38.633,0,0,0,13.065-9.585,20.763,20.763,0,0,0,5.287-11.979,18.184,18.184,0,0,0-.986-7.456,22.835,22.835,0,0,0-5.17-8.27c-4.626-4.9-10.338-8.093-16.562-10.463a63.256,63.256,0,0,0-10.755-3,82.574,82.574,0,0,0-9.566-1.189,74.187,74.187,0,0,0-10.921.072,72.445,72.445,0,0,0-10.483,1.573,57.275,57.275,0,0,0-17.187,6.683c-4.7,2.845-8.808,6.343-11.565,11.2a18.183,18.183,0,0,0-1.671,15.215,24.592,24.592,0,0,0,7.424,10.693,43.677,43.677,0,0,0,11.453,7.155,65.11,65.11,0,0,0,17.513,4.846A68.907,68.907,0,0,0-289.52-305.46Z" transform="translate(0 0)" fill="#0075be"/>
    <path id="Path_6177" data-name="Path 6177" d="M-252.082-323.915c.421-.8.77-1.458,1.117-2.119q3.183-6.065,6.355-12.136a.812.812,0,0,1,.844-.516c2.766.018,5.532.009,8.381.009-.615,1.086-1.192,2.115-1.777,3.138q-4.613,8.079-9.228,16.156c-1.089,1.907-2.184,3.812-3.256,5.729a.676.676,0,0,1-.689.393c-2.613-.013-5.226-.017-7.839,0-.4,0-.536-.135-.594-.506q-.828-5.382-1.68-10.76c-.4-2.511-.824-5.017-1.23-7.527-.334-2.07-.649-4.143-.988-6.212-.056-.34.032-.423.372-.422q4.037.02,8.073,0c.382,0,.5.132.539.49q.412,3.945.853,7.887C-252.6-328.232-252.344-326.158-252.082-323.915Z" transform="translate(-35.973 -12.611)" fill="#0075be"/>
    <path id="Path_6178" data-name="Path 6178" d="M-217.468-321.676q1.667,0,3.335,0c.184,0,.4-.067.408.255a2.324,2.324,0,0,0,2.178,2.278,5.106,5.106,0,0,0,3.141-.342,2.233,2.233,0,0,0,.581-.385,1.447,1.447,0,0,0-.337-2.586,22.262,22.262,0,0,0-3.632-1.222,23.178,23.178,0,0,1-3.995-1.442,5.488,5.488,0,0,1-3.151-6.216c.627-4.35,3.481-6.632,7.425-7.745a14.865,14.865,0,0,1,8.13-.035,6.508,6.508,0,0,1,4.9,7.023c-.019.279-.1.365-.376.363-2.223-.009-4.447,0-6.67-.005-.172,0-.344.036-.359-.244a1.871,1.871,0,0,0-1.856-1.822,5.386,5.386,0,0,0-2.317.1,1.573,1.573,0,0,0-1.23,1.938,1.6,1.6,0,0,0,.806.882,14.071,14.071,0,0,0,3.679,1.242,20.162,20.162,0,0,1,4.359,1.612,5.291,5.291,0,0,1,2.844,6.16c-.871,4.8-4.446,7.414-8.919,8.252a15.333,15.333,0,0,1-6.659.011,7.659,7.659,0,0,1-5.675-4.563,6.59,6.59,0,0,1-.379-3.151c.032-.327.158-.37.433-.367C-219.692-321.669-218.58-321.675-217.468-321.676Z" transform="translate(-55.852 -12.153)" fill="#0075be"/>
    <path id="Path_6179" data-name="Path 6179" d="M-297.913-338.68c3.84,0,7.68.01,11.52-.013.474,0,.547.138.469.552-.356,1.887-.711,3.774-1.028,5.668-.068.4-.215.5-.6.5-2.222-.016-4.445,0-6.667-.017-.416,0-.549.11-.622.532-.714,4.131-1.456,8.257-2.193,12.384-.317,1.776-.647,3.55-.956,5.328-.065.375-.228.488-.615.484q-3.772-.031-7.544,0c-.413,0-.526-.073-.445-.518.708-3.873,1.387-7.751,2.078-11.628.365-2.045.724-4.092,1.12-6.131.08-.416-.052-.448-.394-.445-2.222.01-4.444-.007-6.667.015-.493,0-.661-.034-.54-.626.377-1.842.667-3.7.981-5.558.064-.378.2-.542.637-.54C-305.555-338.671-301.734-338.68-297.913-338.68Z" transform="translate(-12.697 -12.608)" fill="#0075be"/>
    <path id="Path_6180" data-name="Path 6180" d="M-222.767-286.074q-.266,1.474-.532,2.949a11.61,11.61,0,0,0-.218,1.261c-.026.378-.2.423-.524.421-.8-.007-.819,0-.686-.786.311-1.857.637-3.712.955-5.569.051-.3.16-.459.525-.456.967.007.97-.017,1.308.882.457,1.216.909,2.433,1.4,3.752a11.142,11.142,0,0,0,.381-1.871c.162-.8.283-1.608.46-2.4.156-.7.732-.3,1.1-.317s.177.35.145.539q-.49,2.837-1.016,5.666c-.043.23.01.639-.413.546s-.985.351-1.239-.38c-.494-1.42-1.03-2.825-1.549-4.237Z" transform="translate(-53.694 -36.32)" fill="#0075be"/>
    <path id="Path_6181" data-name="Path 6181" d="M-245.115-284.6c.683.451.485,1.108.371,1.735-.085.47-.295.935.064,1.376-.062.037-.093.071-.124.071-1.948.013-1.462.2-1.315-1.483.085-.973.038-1.1-.939-1.1-1.267-.008-1.269-.009-1.531,1.225a7,7,0,0,0-.151.92c-.025.342-.169.457-.516.458-.9,0-.913.019-.762-.87.305-1.8.626-3.595.936-5.392.062-.36.174-.577.629-.552.874.047,1.753.01,2.631.015.751,0,1.463.12,1.769.939a2.009,2.009,0,0,1-.511,2.2A5.955,5.955,0,0,1-245.115-284.6Zm-2.13-.568a3.66,3.66,0,0,0,1.278-.114,1.064,1.064,0,0,0,.622-1.193c-.087-.5-.461-.564-.88-.555-.233.005-.467,0-.7,0-.856,0-.856,0-1.04.849C-248.183-285.166-248.183-285.166-247.244-285.166Z" transform="translate(-41.734 -36.366)" fill="#0075be"/>
    <path id="Path_6182" data-name="Path 6182" d="M-233.643-288.444a2.349,2.349,0,0,1,2.548,2.6c-.029,1.87-.637,3.439-2.469,4.268a3.131,3.131,0,0,1-2.337.126,2.245,2.245,0,0,1-1.6-2.152,5.269,5.269,0,0,1,.956-3.409A3.308,3.308,0,0,1-233.643-288.444Zm1.149,2.909c.006-1.178-.556-1.838-1.542-1.708a1.939,1.939,0,0,0-1.409.835,3.934,3.934,0,0,0-.666,2.658,1.345,1.345,0,0,0,1.682,1.237,1.836,1.836,0,0,0,1.314-.872A3.791,3.791,0,0,0-232.493-285.535Z" transform="translate(-47.681 -36.26)" fill="#0075be"/>
    <path id="Path_6183" data-name="Path 6183" d="M-190.865-286.217c-.341.062-.626.036-.664-.549-.03-.467-.75-.705-1.417-.571a.956.956,0,0,0-.773,1.013.637.637,0,0,0,.531.606c.466.135.94.243,1.4.385.765.235,1.491.527,1.545,1.5a2.429,2.429,0,0,1-1.386,2.2,4.389,4.389,0,0,1-2.8.211,1.708,1.708,0,0,1-1.352-1.687c-.022-.374.1-.55.5-.5a2.43,2.43,0,0,0,.525,0c.328-.033.5.038.479.432a.749.749,0,0,0,.654.773,1.386,1.386,0,0,0,1.7-.61.77.77,0,0,0-.511-1.15c-.6-.209-1.221-.386-1.823-.6-.827-.294-1.007-.714-.89-1.57.223-1.63,1.927-2.3,3.57-1.991a1.6,1.6,0,0,1,1.484,1.269C-189.941-286.326-190.035-286.217-190.865-286.217Z" transform="translate(-67.396 -36.279)" fill="#0075be"/>
    <path id="Path_6184" data-name="Path 6184" d="M-303.147-281.4c-.7,0-1.4,0-2.1,0-.191,0-.363.057-.3-.3q.581-3.06,1.09-6.132c.053-.32.189-.369.457-.368,1.326.007,2.651.014,3.976,0,.369-.005.4.137.366.451-.055.539-.233.808-.854.75-.734-.069-1.482.018-2.22-.03-.435-.028-.557.144-.629.525-.188.983-.2.98.821.98.6,0,1.208.009,1.812,0,.279-.006.356.049.3.364-.146.829-.123.833-.944.833-.662,0-1.326.014-1.988-.006-.266-.009-.355.087-.429.334-.409,1.366-.377,1.421.995,1.421.662,0,1.326.007,1.988,0,.283,0,.355.057.288.371-.173.808-.149.813-.992.813Z" transform="translate(-15.517 -36.373)" fill="#0075be"/>
    <path id="Path_6185" data-name="Path 6185" d="M-278.93-282.594c.026.058.04.075.038.089-.171,1.091-.171,1.091-1.29,1.091s-2.221,0-3.331,0c-.331,0-.511.027-.414-.461.371-1.864.67-3.742.985-5.617.08-.475.18-.78.815-.74,1.2.075,2.415.016,3.623.028.17,0,.551-.12.437.226-.106.321.2.924-.476.94-.876.02-1.755.03-2.63-.006-.406-.017-.529.143-.594.5-.18,1-.192,1,.819,1,.565,0,1.131.02,1.694-.007.354-.017.465.06.415.446-.072.561-.243.85-.894.771-.634-.076-1.285,0-1.926-.025-.361-.016-.541.094-.575.461a4.09,4.09,0,0,1-.146.919c-.12.359.031.384.32.381C-281.01-282.6-279.96-282.594-278.93-282.594Z" transform="translate(-25.729 -36.357)" fill="#0075be"/>
    <path id="Path_6186" data-name="Path 6186" d="M-268.636-288.476a2.176,2.176,0,0,1,2.356,1.947c.065.383-.038.555-.443.516a5.853,5.853,0,0,0-.642,0c-.2,0-.326-.044-.348-.284-.088-.947-1.164-1.265-2.05-.672a3.608,3.608,0,0,0-1.108,3.641,1.073,1.073,0,0,0,.937.766,1.669,1.669,0,0,0,1.639-.784c.12-.18.129-.491.44-.48.363.013.863-.174,1.051.085.173.237-.193.615-.382.9a3.294,3.294,0,0,1-2.205,1.487,2.366,2.366,0,0,1-2.986-2c-.232-1.164.384-3.664,1.82-4.535A3.484,3.484,0,0,1-268.636-288.476Z" transform="translate(-31.179 -36.246)" fill="#0075be"/>
    <path id="Path_6187" data-name="Path 6187" d="M-203.8-288.444a2.153,2.153,0,0,1,2.33,1.973c.055.329-.027.486-.376.471-.234-.01-.468,0-.7,0-.2,0-.282-.049-.354-.272a1.266,1.266,0,0,0-2.1-.674,3.6,3.6,0,0,0-1.008,3.76,1.373,1.373,0,0,0,2.362,0c.377-.686.857-.641,1.433-.638.3,0,.321.1.206.348a3.341,3.341,0,0,1-3.863,2.077,2.139,2.139,0,0,1-1.7-1.848,4.7,4.7,0,0,1,2.566-5.01A3.258,3.258,0,0,1-203.8-288.444Z" transform="translate(-61.796 -36.261)" fill="#0075be"/>
    <path id="Path_6188" data-name="Path 6188" d="M-258.767-287.011h-.117c-.892,0-.9-.026-.646-.9.063-.216.144-.282.349-.282,1.538,0,3.076.008,4.614,0,.311,0,.348.131.313.39-.11.792-.1.792-.919.793-1.194,0-1.2,0-1.4,1.125-.241,1.355-.5,2.708-.7,4.068-.056.368-.2.429-.522.429-.916,0-.926.012-.778-.868.229-1.356.47-2.711.711-4.065.123-.689.129-.689-.554-.688Z" transform="translate(-37.2 -36.375)" fill="#0075be"/>
    <path id="Path_6189" data-name="Path 6189" d="M-291.979-281.447c-.643,0-1.285-.019-1.927.007-.37.016-.424-.139-.365-.449q.5-2.686.995-5.375c.007-.038.018-.076.024-.114.141-.858.431-1.041,1.3-.866.254.051.176.162.147.325-.284,1.563-.547,3.13-.841,4.691-.083.44-.071.659.487.614.716-.058,1.44,0,2.16-.02.309-.008.442.03.4.4-.1.781-.069.784-.86.784Z" transform="translate(-20.839 -36.324)" fill="#0075be"/>
    <path id="Path_6190" data-name="Path 6190" d="M-212.2-281.4c-.467.11-.633-.021-.5-.646.39-1.876.717-3.765,1.022-5.657.066-.411.206-.535.585-.491a2.677,2.677,0,0,0,.524,0c.307-.024.349.109.3.384-.362,1.981-.736,3.961-1.048,5.95C-211.409-281.273-211.767-281.414-212.2-281.4Z" transform="translate(-59.343 -36.369)" fill="#0075be"/>
  </g>
</svg>
